# xmcd CD database file
# Copyright (C) 1995-1998 Ti Kan
#
# Track frame offsets:
#	150
#	11927
#	25965
#	36662
#	51295
#	65025
#	78887
#	92875
#	105662
#	121115
#	135427
#	147952
#	161062
#	175175
#	188437
#	200655
#	215322
#	228027
#	242734
#	254747
#	267622
#	281122
#
# Disc length: 3893 seconds
#
# Revision: 1
# Processed by: cddbd v1.5PL3 Copyright (c) Steve Scherf et al.
# Submitted via: CDex 1.30Release
#
DISCID=480f3316
DTITLE=Ernest Tubb - Vol. 1 1942-1949
DYEAR=1900
DGENRE=Country
TTITLE0=Walking the Floor Over You
TTITLE1=Our Baby's Book
TTITLE2=Try Me One More Time
TTITLE3=Soldier's Last letter
TTITLE4=Yesterday's Tears
TTITLE5=Keep My Memory in Your Heart
TTITLE6=Tomorrow Never Comes
TTITLE7=Careless Darlin'
TTITLE8=It's Been So Long Darlin'
TTITLE9=Rainbow at Midnight
TTITLE10=Filipino Baby
TTITLE11=Drivin' Nails in My Coffin
TTITLE12=Don't Look Now
TTITLE13=So Round, So Firm, So Fully Packed
TTITLE14=I'll Step Aside
TTITLE15=Seaman's Blues
TTITLE16=You Nearly Lose Your Mind
TTITLE17=Forever is Ending Today
TTITLE18=That Wild and Wicked Look in Your Eye
TTITLE19=Have You Ever Been Lonely
TTITLE20=Let's Say Goodbye Like We Said Hello
TTITLE21=Till the End of the World
EXTD=ID3G:   2
EXTT0=
EXTT1=
EXTT2=
EXTT3=
EXTT4=
EXTT5=
EXTT6=
EXTT7=
EXTT8=
EXTT9=
EXTT10=
EXTT11=
EXTT12=
EXTT13=
EXTT14=
EXTT15=
EXTT16=
EXTT17=
EXTT18=
EXTT19=
EXTT20=
EXTT21=
PLAYORDER=
